<svg width="36" height="17" viewBox="0 0 36 17" fill="none" xmlns="http://www.w3.org/2000/svg">
<line x1="2" y1="6.516" x2="10" y2="6.516" stroke="black"/>
<line y1="9.516" x2="8" y2="9.516" stroke="black"/>
<line x1="2" y1="12.516" x2="11" y2="12.516" stroke="black"/>
<path d="M30.8784 6.1493L30.9548 6.5185L31.3307 6.54661C33.6433 6.71951 35.5 8.66719 35.5 11.016C35.5 13.4999 33.4679 15.532 30.984 15.532H18C14.9401 15.532 12.5 13.0919 12.5 10.032C12.5 7.19477 14.6558 4.8631 17.4037 4.57732L17.6714 4.54948L17.7956 4.31068C18.9636 2.0646 21.2952 0.5 24 0.5C27.4024 0.5 30.2047 2.89303 30.8784 6.1493Z" stroke="black"/>
<g clip-path="url(#clip0_708_2370)">
<path d="M24 5.34933V12.6827" stroke="black" stroke-linecap="round" stroke-linejoin="round"/>
<path d="M26.0833 6.68267H22.9583C22.5716 6.68267 22.2006 6.80558 21.9271 7.02438C21.6536 7.24317 21.5 7.53991 21.5 7.84933C21.5 8.15875 21.6536 8.4555 21.9271 8.67429C22.2006 8.89308 22.5716 9.016 22.9583 9.016H25.0417C25.4284 9.016 25.7994 9.13892 26.0729 9.35771C26.3464 9.5765 26.5 9.87325 26.5 10.1827C26.5 10.4921 26.3464 10.7888 26.0729 11.0076C25.7994 11.2264 25.4284 11.3493 25.0417 11.3493H21.5" stroke="black" stroke-linecap="round" stroke-linejoin="round"/>
</g>
<defs>
<clipPath id="clip0_708_2370">
<rect width="10" height="8" fill="white" transform="translate(19 5.016)"/>
</clipPath>
</defs>
</svg>
