<svg width="106" height="15" viewBox="0 0 106 15" fill="none" xmlns="http://www.w3.org/2000/svg">
<path d="M14.0568 12V3.27273H19.3239V4.21023H15.1136V7.15909H19.0511V8.09659H15.1136V11.0625H19.392V12H14.0568ZM21.8423 5.45455L23.4105 8.13068L24.9787 5.45455H26.1378L24.0241 8.72727L26.1378 12H24.9787L23.4105 9.46023L21.8423 12H20.6832L22.7628 8.72727L20.6832 5.45455H21.8423ZM27.5728 14.4545V5.45455H28.5444V6.49432H28.6637C28.7376 6.38068 28.8398 6.2358 28.9705 6.05966C29.104 5.88068 29.2944 5.72159 29.5415 5.58239C29.7915 5.44034 30.1296 5.36932 30.5558 5.36932C31.1069 5.36932 31.5927 5.5071 32.0131 5.78267C32.4336 6.05824 32.7617 6.44886 32.9975 6.95455C33.2333 7.46023 33.3512 8.05682 33.3512 8.74432C33.3512 9.4375 33.2333 10.0384 32.9975 10.5469C32.7617 11.0526 32.435 11.4446 32.0174 11.723C31.5998 11.9986 31.1183 12.1364 30.5728 12.1364C30.1523 12.1364 29.8157 12.0668 29.5629 11.9276C29.31 11.7855 29.1154 11.625 28.979 11.446C28.8427 11.2642 28.7376 11.1136 28.6637 10.9943H28.5785V14.4545H27.5728ZM28.5614 8.72727C28.5614 9.22159 28.6339 9.65767 28.7788 10.0355C28.9237 10.4105 29.1353 10.7045 29.4137 10.9176C29.6921 11.1278 30.033 11.233 30.4364 11.233C30.8569 11.233 31.2077 11.1222 31.489 10.9006C31.7731 10.6761 31.9862 10.375 32.1282 9.99716C32.2731 9.61648 32.3455 9.19318 32.3455 8.72727C32.3455 8.26705 32.2745 7.85227 32.1325 7.48295C31.9933 7.1108 31.7816 6.81676 31.4975 6.60085C31.2163 6.3821 30.8626 6.27273 30.4364 6.27273C30.0273 6.27273 29.6836 6.37642 29.4052 6.58381C29.1268 6.78835 28.9165 7.07528 28.7745 7.4446C28.6325 7.81108 28.5614 8.23864 28.5614 8.72727ZM34.8853 12V5.45455H35.8569V6.44318H35.9251C36.0444 6.11932 36.2603 5.85653 36.5728 5.65483C36.8853 5.45312 37.2376 5.35227 37.6296 5.35227C37.7035 5.35227 37.7958 5.35369 37.9066 5.35653C38.0174 5.35937 38.1012 5.36364 38.158 5.36932V6.39205C38.1239 6.38352 38.0458 6.37074 37.9237 6.35369C37.8043 6.33381 37.6779 6.32386 37.5444 6.32386C37.2262 6.32386 36.9421 6.39062 36.6921 6.52415C36.445 6.65483 36.2489 6.83665 36.104 7.0696C35.962 7.29972 35.891 7.5625 35.891 7.85795V12H34.8853ZM41.8952 12.1364C41.2646 12.1364 40.7205 11.9972 40.2631 11.7188C39.8086 11.4375 39.4577 11.0455 39.2106 10.5426C38.9663 10.0369 38.8441 9.44886 38.8441 8.77841C38.8441 8.10795 38.9663 7.51705 39.2106 7.00568C39.4577 6.49148 39.8015 6.09091 40.2418 5.80398C40.685 5.5142 41.2021 5.36932 41.793 5.36932C42.1339 5.36932 42.4705 5.42614 42.8029 5.53977C43.1353 5.65341 43.4379 5.83807 43.7106 6.09375C43.9833 6.34659 44.2006 6.68182 44.3626 7.09943C44.5245 7.51705 44.6055 8.03125 44.6055 8.64205V9.06818H39.56V8.19886H43.5827C43.5827 7.82955 43.5089 7.5 43.3612 7.21023C43.2163 6.92045 43.0089 6.69176 42.739 6.52415C42.4719 6.35653 42.1566 6.27273 41.793 6.27273C41.3924 6.27273 41.0458 6.37216 40.7532 6.57102C40.4634 6.76705 40.2404 7.02273 40.0842 7.33807C39.9279 7.65341 39.8498 7.99148 39.8498 8.35227V8.93182C39.8498 9.42614 39.935 9.84517 40.1055 10.1889C40.2788 10.5298 40.5188 10.7898 40.8256 10.9688C41.1325 11.1449 41.489 11.233 41.8952 11.233C42.1594 11.233 42.3981 11.196 42.6112 11.1222C42.8271 11.0455 43.0131 10.9318 43.1694 10.7812C43.3256 10.6278 43.4464 10.4375 43.5316 10.2102L44.5032 10.483C44.4009 10.8125 44.229 11.1023 43.9876 11.3523C43.7461 11.5994 43.4478 11.7926 43.0927 11.9318C42.7376 12.0682 42.3384 12.1364 41.8952 12.1364ZM50.7717 6.92045L49.8683 7.17614C49.8114 7.02557 49.7276 6.87926 49.6168 6.73722C49.5089 6.59233 49.3612 6.47301 49.1737 6.37926C48.9862 6.28551 48.7461 6.23864 48.4535 6.23864C48.0529 6.23864 47.7191 6.33097 47.4521 6.51562C47.1879 6.69744 47.0558 6.92898 47.0558 7.21023C47.0558 7.46023 47.1467 7.65767 47.3285 7.80256C47.5103 7.94744 47.7944 8.06818 48.1808 8.16477L49.1523 8.40341C49.7376 8.54545 50.1737 8.76278 50.4606 9.0554C50.7475 9.34517 50.891 9.71875 50.891 10.1761C50.891 10.5511 50.783 10.8864 50.5671 11.1818C50.354 11.4773 50.0558 11.7102 49.6722 11.8807C49.2887 12.0511 48.8427 12.1364 48.3342 12.1364C47.6665 12.1364 47.114 11.9915 46.6765 11.7017C46.239 11.4119 45.962 10.9886 45.8455 10.4318L46.8001 10.1932C46.891 10.5455 47.0629 10.8097 47.3157 10.9858C47.5714 11.1619 47.9052 11.25 48.3171 11.25C48.7859 11.25 49.158 11.1506 49.4336 10.9517C49.712 10.75 49.8512 10.5085 49.8512 10.2273C49.8512 10 49.7717 9.80966 49.6126 9.65625C49.4535 9.5 49.2092 9.38352 48.8796 9.30682L47.7887 9.05114C47.1893 8.90909 46.7489 8.68892 46.4677 8.39062C46.1893 8.08949 46.0501 7.71307 46.0501 7.26136C46.0501 6.89205 46.1538 6.56534 46.3612 6.28125C46.5714 5.99716 46.8569 5.77415 47.2177 5.61222C47.5813 5.45028 47.9933 5.36932 48.4535 5.36932C49.1012 5.36932 49.6097 5.51136 49.979 5.79545C50.3512 6.07955 50.6154 6.45455 50.7717 6.92045ZM57.0412 6.92045L56.1378 7.17614C56.081 7.02557 55.9972 6.87926 55.8864 6.73722C55.7784 6.59233 55.6307 6.47301 55.4432 6.37926C55.2557 6.28551 55.0156 6.23864 54.723 6.23864C54.3224 6.23864 53.9886 6.33097 53.7216 6.51562C53.4574 6.69744 53.3253 6.92898 53.3253 7.21023C53.3253 7.46023 53.4162 7.65767 53.598 7.80256C53.7798 7.94744 54.0639 8.06818 54.4503 8.16477L55.4219 8.40341C56.0071 8.54545 56.4432 8.76278 56.7301 9.0554C57.017 9.34517 57.1605 9.71875 57.1605 10.1761C57.1605 10.5511 57.0526 10.8864 56.8366 11.1818C56.6236 11.4773 56.3253 11.7102 55.9418 11.8807C55.5582 12.0511 55.1122 12.1364 54.6037 12.1364C53.9361 12.1364 53.3835 11.9915 52.946 11.7017C52.5085 11.4119 52.2315 10.9886 52.1151 10.4318L53.0696 10.1932C53.1605 10.5455 53.3324 10.8097 53.5852 10.9858C53.8409 11.1619 54.1747 11.25 54.5866 11.25C55.0554 11.25 55.4276 11.1506 55.7031 10.9517C55.9815 10.75 56.1207 10.5085 56.1207 10.2273C56.1207 10 56.0412 9.80966 55.8821 9.65625C55.723 9.5 55.4787 9.38352 55.1491 9.30682L54.0582 9.05114C53.4588 8.90909 53.0185 8.68892 52.7372 8.39062C52.4588 8.08949 52.3196 7.71307 52.3196 7.26136C52.3196 6.89205 52.4233 6.56534 52.6307 6.28125C52.8409 5.99716 53.1264 5.77415 53.4872 5.61222C53.8509 5.45028 54.2628 5.36932 54.723 5.36932C55.3707 5.36932 55.8793 5.51136 56.2486 5.79545C56.6207 6.07955 56.8849 6.45455 57.0412 6.92045ZM62.1857 12V3.27273H67.4187V4.21023H63.2425V7.15909H67.0266V8.09659H63.2425V12H62.1857ZM69.0923 12V5.45455H70.098V12H69.0923ZM69.6037 4.36364C69.4077 4.36364 69.2386 4.29688 69.0966 4.16335C68.9574 4.02983 68.8878 3.86932 68.8878 3.68182C68.8878 3.49432 68.9574 3.33381 69.0966 3.20028C69.2386 3.06676 69.4077 3 69.6037 3C69.7997 3 69.9673 3.06676 70.1065 3.20028C70.2486 3.33381 70.3196 3.49432 70.3196 3.68182C70.3196 3.86932 70.2486 4.02983 70.1065 4.16335C69.9673 4.29688 69.7997 4.36364 69.6037 4.36364ZM72.9457 8.0625V12H71.94V5.45455H72.9116V6.47727H72.9968C73.1502 6.14489 73.3832 5.87784 73.6957 5.67614C74.0082 5.47159 74.4116 5.36932 74.9059 5.36932C75.3491 5.36932 75.7369 5.46023 76.0692 5.64205C76.4016 5.82102 76.6602 6.09375 76.8448 6.46023C77.0295 6.82386 77.1218 7.28409 77.1218 7.84091V12H76.1161V7.90909C76.1161 7.39489 75.9826 6.99432 75.7156 6.70739C75.4485 6.41761 75.082 6.27273 74.6161 6.27273C74.2951 6.27273 74.0082 6.34233 73.7553 6.48153C73.5053 6.62074 73.3079 6.82386 73.163 7.09091C73.0181 7.35795 72.9457 7.68182 72.9457 8.0625ZM80.8857 12.1534C80.4709 12.1534 80.0945 12.0753 79.7564 11.919C79.4183 11.7599 79.1499 11.5312 78.951 11.233C78.7521 10.9318 78.6527 10.5682 78.6527 10.142C78.6527 9.76705 78.7266 9.46307 78.8743 9.23011C79.022 8.99432 79.2195 8.80966 79.4666 8.67614C79.7138 8.54261 79.9865 8.44318 80.2848 8.37784C80.5859 8.30966 80.8885 8.25568 81.1925 8.21591C81.5902 8.16477 81.9126 8.12642 82.1598 8.10085C82.4098 8.07244 82.5916 8.02557 82.7053 7.96023C82.8217 7.89489 82.88 7.78125 82.88 7.61932V7.58523C82.88 7.16477 82.7649 6.83807 82.5348 6.60511C82.3075 6.37216 81.9624 6.25568 81.4993 6.25568C81.0192 6.25568 80.6428 6.3608 80.37 6.57102C80.0973 6.78125 79.9055 7.00568 79.7947 7.24432L78.8402 6.90341C79.0107 6.50568 79.2379 6.19602 79.522 5.97443C79.8089 5.75 80.1214 5.59375 80.4595 5.50568C80.8004 5.41477 81.1357 5.36932 81.4652 5.36932C81.6754 5.36932 81.9169 5.39489 82.1896 5.44602C82.4652 5.49432 82.7308 5.59517 82.9865 5.74858C83.245 5.90199 83.4595 6.13352 83.63 6.44318C83.8004 6.75284 83.8857 7.16761 83.8857 7.6875V12H82.88V11.1136H82.8288C82.7607 11.2557 82.647 11.4077 82.4879 11.5696C82.3288 11.7315 82.1172 11.8693 81.853 11.983C81.5888 12.0966 81.2663 12.1534 80.8857 12.1534ZM81.0391 11.25C81.4368 11.25 81.772 11.1719 82.0447 11.0156C82.3203 10.8594 82.5277 10.6577 82.6669 10.4105C82.8089 10.1634 82.88 9.90341 82.88 9.63068V8.71023C82.8374 8.76136 82.7436 8.80824 82.5987 8.85085C82.4567 8.89062 82.2919 8.92614 82.1044 8.95739C81.9197 8.9858 81.7393 9.01136 81.5632 9.03409C81.3899 9.05398 81.2493 9.07102 81.1413 9.08523C80.88 9.11932 80.6357 9.17472 80.4084 9.25142C80.1839 9.32528 80.0021 9.4375 79.8629 9.58807C79.7266 9.7358 79.6584 9.9375 79.6584 10.1932C79.6584 10.5426 79.7876 10.8068 80.0462 10.9858C80.3075 11.1619 80.6385 11.25 81.0391 11.25ZM86.7269 8.0625V12H85.7212V5.45455H86.6928V6.47727H86.7781C86.9315 6.14489 87.1644 5.87784 87.4769 5.67614C87.7894 5.47159 88.1928 5.36932 88.6871 5.36932C89.1303 5.36932 89.5181 5.46023 89.8505 5.64205C90.1829 5.82102 90.4414 6.09375 90.6261 6.46023C90.8107 6.82386 90.9031 7.28409 90.9031 7.84091V12H89.8974V7.90909C89.8974 7.39489 89.7638 6.99432 89.4968 6.70739C89.2298 6.41761 88.8633 6.27273 88.3974 6.27273C88.0763 6.27273 87.7894 6.34233 87.5366 6.48153C87.2866 6.62074 87.0891 6.82386 86.9442 7.09091C86.7994 7.35795 86.7269 7.68182 86.7269 8.0625ZM95.3999 12.1364C94.7862 12.1364 94.2578 11.9915 93.8146 11.7017C93.3714 11.4119 93.0305 11.0128 92.7919 10.5043C92.5533 9.99574 92.4339 9.41477 92.4339 8.76136C92.4339 8.09659 92.5561 7.50994 92.8004 7.00142C93.0476 6.49006 93.3913 6.09091 93.8317 5.80398C94.2749 5.5142 94.7919 5.36932 95.3828 5.36932C95.843 5.36932 96.2578 5.45455 96.6271 5.625C96.9964 5.79545 97.299 6.03409 97.5348 6.34091C97.7706 6.64773 97.9169 7.00568 97.9737 7.41477H96.968C96.8913 7.11648 96.7209 6.85227 96.4567 6.62216C96.1953 6.3892 95.843 6.27273 95.3999 6.27273C95.0078 6.27273 94.6641 6.375 94.3686 6.57955C94.076 6.78125 93.8473 7.06676 93.6825 7.43608C93.5206 7.80256 93.4396 8.23295 93.4396 8.72727C93.4396 9.23295 93.5192 9.6733 93.6783 10.0483C93.8402 10.4233 94.0675 10.7145 94.3601 10.9219C94.6555 11.1293 95.0021 11.233 95.3999 11.233C95.6612 11.233 95.8984 11.1875 96.1115 11.0966C96.3246 11.0057 96.505 10.875 96.6527 10.7045C96.8004 10.5341 96.9055 10.3295 96.968 10.0909H97.9737C97.9169 10.4773 97.7763 10.8253 97.5518 11.1349C97.3303 11.4418 97.0362 11.6861 96.6697 11.8679C96.3061 12.0469 95.8828 12.1364 95.3999 12.1364ZM102.188 12.1364C101.558 12.1364 101.013 11.9972 100.556 11.7188C100.102 11.4375 99.7507 11.0455 99.5036 10.5426C99.2592 10.0369 99.1371 9.44886 99.1371 8.77841C99.1371 8.10795 99.2592 7.51705 99.5036 7.00568C99.7507 6.49148 100.094 6.09091 100.535 5.80398C100.978 5.5142 101.495 5.36932 102.086 5.36932C102.427 5.36932 102.763 5.42614 103.096 5.53977C103.428 5.65341 103.731 5.83807 104.004 6.09375C104.276 6.34659 104.494 6.68182 104.656 7.09943C104.817 7.51705 104.898 8.03125 104.898 8.64205V9.06818H99.853V8.19886H103.876C103.876 7.82955 103.802 7.5 103.654 7.21023C103.509 6.92045 103.302 6.69176 103.032 6.52415C102.765 6.35653 102.45 6.27273 102.086 6.27273C101.685 6.27273 101.339 6.37216 101.046 6.57102C100.756 6.76705 100.533 7.02273 100.377 7.33807C100.221 7.65341 100.143 7.99148 100.143 8.35227V8.93182C100.143 9.42614 100.228 9.84517 100.398 10.1889C100.572 10.5298 100.812 10.7898 101.119 10.9688C101.425 11.1449 101.782 11.233 102.188 11.233C102.452 11.233 102.691 11.196 102.904 11.1222C103.12 11.0455 103.306 10.9318 103.462 10.7812C103.619 10.6278 103.739 10.4375 103.825 10.2102L104.796 10.483C104.694 10.8125 104.522 11.1023 104.281 11.3523C104.039 11.5994 103.741 11.7926 103.386 11.9318C103.031 12.0682 102.631 12.1364 102.188 12.1364Z" fill="black"/>
<line x1="2" y1="4.5" x2="10" y2="4.5" stroke="black"/>
<line y1="7.5" x2="8" y2="7.5" stroke="black"/>
<line x1="2" y1="10.5" x2="11" y2="10.5" stroke="black"/>
</svg>
