<svg width="105" height="15" viewBox="0 0 105 15" fill="none" xmlns="http://www.w3.org/2000/svg">
<path d="M13.0568 12V3.27273H18.3239V4.21023H14.1136V7.15909H18.0511V8.09659H14.1136V11.0625H18.392V12H13.0568ZM20.8423 5.45455L22.4105 8.13068L23.9787 5.45455H25.1378L23.0241 8.72727L25.1378 12H23.9787L22.4105 9.46023L20.8423 12H19.6832L21.7628 8.72727L19.6832 5.45455H20.8423ZM26.5728 14.4545V5.45455H27.5444V6.49432H27.6637C27.7376 6.38068 27.8398 6.2358 27.9705 6.05966C28.104 5.88068 28.2944 5.72159 28.5415 5.58239C28.7915 5.44034 29.1296 5.36932 29.5558 5.36932C30.1069 5.36932 30.5927 5.5071 31.0131 5.78267C31.4336 6.05824 31.7617 6.44886 31.9975 6.95455C32.2333 7.46023 32.3512 8.05682 32.3512 8.74432C32.3512 9.4375 32.2333 10.0384 31.9975 10.5469C31.7617 11.0526 31.435 11.4446 31.0174 11.723C30.5998 11.9986 30.1183 12.1364 29.5728 12.1364C29.1523 12.1364 28.8157 12.0668 28.5629 11.9276C28.31 11.7855 28.1154 11.625 27.979 11.446C27.8427 11.2642 27.7376 11.1136 27.6637 10.9943H27.5785V14.4545H26.5728ZM27.5614 8.72727C27.5614 9.22159 27.6339 9.65767 27.7788 10.0355C27.9237 10.4105 28.1353 10.7045 28.4137 10.9176C28.6921 11.1278 29.033 11.233 29.4364 11.233C29.8569 11.233 30.2077 11.1222 30.489 10.9006C30.7731 10.6761 30.9862 10.375 31.1282 9.99716C31.2731 9.61648 31.3455 9.19318 31.3455 8.72727C31.3455 8.26705 31.2745 7.85227 31.1325 7.48295C30.9933 7.1108 30.7816 6.81676 30.4975 6.60085C30.2163 6.3821 29.8626 6.27273 29.4364 6.27273C29.0273 6.27273 28.6836 6.37642 28.4052 6.58381C28.1268 6.78835 27.9165 7.07528 27.7745 7.4446C27.6325 7.81108 27.5614 8.23864 27.5614 8.72727ZM33.8853 12V5.45455H34.8569V6.44318H34.9251C35.0444 6.11932 35.2603 5.85653 35.5728 5.65483C35.8853 5.45312 36.2376 5.35227 36.6296 5.35227C36.7035 5.35227 36.7958 5.35369 36.9066 5.35653C37.0174 5.35937 37.1012 5.36364 37.158 5.36932V6.39205C37.1239 6.38352 37.0458 6.37074 36.9237 6.35369C36.8043 6.33381 36.6779 6.32386 36.5444 6.32386C36.2262 6.32386 35.9421 6.39062 35.6921 6.52415C35.445 6.65483 35.2489 6.83665 35.104 7.0696C34.962 7.29972 34.891 7.5625 34.891 7.85795V12H33.8853ZM40.8952 12.1364C40.2646 12.1364 39.7205 11.9972 39.2631 11.7188C38.8086 11.4375 38.4577 11.0455 38.2106 10.5426C37.9663 10.0369 37.8441 9.44886 37.8441 8.77841C37.8441 8.10795 37.9663 7.51705 38.2106 7.00568C38.4577 6.49148 38.8015 6.09091 39.2418 5.80398C39.685 5.5142 40.2021 5.36932 40.793 5.36932C41.1339 5.36932 41.4705 5.42614 41.8029 5.53977C42.1353 5.65341 42.4379 5.83807 42.7106 6.09375C42.9833 6.34659 43.2006 6.68182 43.3626 7.09943C43.5245 7.51705 43.6055 8.03125 43.6055 8.64205V9.06818H38.56V8.19886H42.5827C42.5827 7.82955 42.5089 7.5 42.3612 7.21023C42.2163 6.92045 42.0089 6.69176 41.739 6.52415C41.4719 6.35653 41.1566 6.27273 40.793 6.27273C40.3924 6.27273 40.0458 6.37216 39.7532 6.57102C39.4634 6.76705 39.2404 7.02273 39.0842 7.33807C38.9279 7.65341 38.8498 7.99148 38.8498 8.35227V8.93182C38.8498 9.42614 38.935 9.84517 39.1055 10.1889C39.2788 10.5298 39.5188 10.7898 39.8256 10.9688C40.1325 11.1449 40.489 11.233 40.8952 11.233C41.1594 11.233 41.3981 11.196 41.6112 11.1222C41.8271 11.0455 42.0131 10.9318 42.1694 10.7812C42.3256 10.6278 42.4464 10.4375 42.5316 10.2102L43.5032 10.483C43.4009 10.8125 43.229 11.1023 42.9876 11.3523C42.7461 11.5994 42.4478 11.7926 42.0927 11.9318C41.7376 12.0682 41.3384 12.1364 40.8952 12.1364ZM49.7717 6.92045L48.8683 7.17614C48.8114 7.02557 48.7276 6.87926 48.6168 6.73722C48.5089 6.59233 48.3612 6.47301 48.1737 6.37926C47.9862 6.28551 47.7461 6.23864 47.4535 6.23864C47.0529 6.23864 46.7191 6.33097 46.4521 6.51562C46.1879 6.69744 46.0558 6.92898 46.0558 7.21023C46.0558 7.46023 46.1467 7.65767 46.3285 7.80256C46.5103 7.94744 46.7944 8.06818 47.1808 8.16477L48.1523 8.40341C48.7376 8.54545 49.1737 8.76278 49.4606 9.0554C49.7475 9.34517 49.891 9.71875 49.891 10.1761C49.891 10.5511 49.783 10.8864 49.5671 11.1818C49.354 11.4773 49.0558 11.7102 48.6722 11.8807C48.2887 12.0511 47.8427 12.1364 47.3342 12.1364C46.6665 12.1364 46.114 11.9915 45.6765 11.7017C45.239 11.4119 44.962 10.9886 44.8455 10.4318L45.8001 10.1932C45.891 10.5455 46.0629 10.8097 46.3157 10.9858C46.5714 11.1619 46.9052 11.25 47.3171 11.25C47.7859 11.25 48.158 11.1506 48.4336 10.9517C48.712 10.75 48.8512 10.5085 48.8512 10.2273C48.8512 10 48.7717 9.80966 48.6126 9.65625C48.4535 9.5 48.2092 9.38352 47.8796 9.30682L46.7887 9.05114C46.1893 8.90909 45.7489 8.68892 45.4677 8.39062C45.1893 8.08949 45.0501 7.71307 45.0501 7.26136C45.0501 6.89205 45.1538 6.56534 45.3612 6.28125C45.5714 5.99716 45.8569 5.77415 46.2177 5.61222C46.5813 5.45028 46.9933 5.36932 47.4535 5.36932C48.1012 5.36932 48.6097 5.51136 48.979 5.79545C49.3512 6.07955 49.6154 6.45455 49.7717 6.92045ZM56.0412 6.92045L55.1378 7.17614C55.081 7.02557 54.9972 6.87926 54.8864 6.73722C54.7784 6.59233 54.6307 6.47301 54.4432 6.37926C54.2557 6.28551 54.0156 6.23864 53.723 6.23864C53.3224 6.23864 52.9886 6.33097 52.7216 6.51562C52.4574 6.69744 52.3253 6.92898 52.3253 7.21023C52.3253 7.46023 52.4162 7.65767 52.598 7.80256C52.7798 7.94744 53.0639 8.06818 53.4503 8.16477L54.4219 8.40341C55.0071 8.54545 55.4432 8.76278 55.7301 9.0554C56.017 9.34517 56.1605 9.71875 56.1605 10.1761C56.1605 10.5511 56.0526 10.8864 55.8366 11.1818C55.6236 11.4773 55.3253 11.7102 54.9418 11.8807C54.5582 12.0511 54.1122 12.1364 53.6037 12.1364C52.9361 12.1364 52.3835 11.9915 51.946 11.7017C51.5085 11.4119 51.2315 10.9886 51.1151 10.4318L52.0696 10.1932C52.1605 10.5455 52.3324 10.8097 52.5852 10.9858C52.8409 11.1619 53.1747 11.25 53.5866 11.25C54.0554 11.25 54.4276 11.1506 54.7031 10.9517C54.9815 10.75 55.1207 10.5085 55.1207 10.2273C55.1207 10 55.0412 9.80966 54.8821 9.65625C54.723 9.5 54.4787 9.38352 54.1491 9.30682L53.0582 9.05114C52.4588 8.90909 52.0185 8.68892 51.7372 8.39062C51.4588 8.08949 51.3196 7.71307 51.3196 7.26136C51.3196 6.89205 51.4233 6.56534 51.6307 6.28125C51.8409 5.99716 52.1264 5.77415 52.4872 5.61222C52.8509 5.45028 53.2628 5.36932 53.723 5.36932C54.3707 5.36932 54.8793 5.51136 55.2486 5.79545C55.6207 6.07955 55.8849 6.45455 56.0412 6.92045ZM61.1857 12V3.27273H66.4187V4.21023H62.2425V7.15909H66.0266V8.09659H62.2425V12H61.1857ZM68.0923 12V5.45455H69.098V12H68.0923ZM68.6037 4.36364C68.4077 4.36364 68.2386 4.29688 68.0966 4.16335C67.9574 4.02983 67.8878 3.86932 67.8878 3.68182C67.8878 3.49432 67.9574 3.33381 68.0966 3.20028C68.2386 3.06676 68.4077 3 68.6037 3C68.7997 3 68.9673 3.06676 69.1065 3.20028C69.2486 3.33381 69.3196 3.49432 69.3196 3.68182C69.3196 3.86932 69.2486 4.02983 69.1065 4.16335C68.9673 4.29688 68.7997 4.36364 68.6037 4.36364ZM71.9457 8.0625V12H70.94V5.45455H71.9116V6.47727H71.9968C72.1502 6.14489 72.3832 5.87784 72.6957 5.67614C73.0082 5.47159 73.4116 5.36932 73.9059 5.36932C74.3491 5.36932 74.7369 5.46023 75.0692 5.64205C75.4016 5.82102 75.6602 6.09375 75.8448 6.46023C76.0295 6.82386 76.1218 7.28409 76.1218 7.84091V12H75.1161V7.90909C75.1161 7.39489 74.9826 6.99432 74.7156 6.70739C74.4485 6.41761 74.082 6.27273 73.6161 6.27273C73.2951 6.27273 73.0082 6.34233 72.7553 6.48153C72.5053 6.62074 72.3079 6.82386 72.163 7.09091C72.0181 7.35795 71.9457 7.68182 71.9457 8.0625ZM79.8857 12.1534C79.4709 12.1534 79.0945 12.0753 78.7564 11.919C78.4183 11.7599 78.1499 11.5312 77.951 11.233C77.7521 10.9318 77.6527 10.5682 77.6527 10.142C77.6527 9.76705 77.7266 9.46307 77.8743 9.23011C78.022 8.99432 78.2195 8.80966 78.4666 8.67614C78.7138 8.54261 78.9865 8.44318 79.2848 8.37784C79.5859 8.30966 79.8885 8.25568 80.1925 8.21591C80.5902 8.16477 80.9126 8.12642 81.1598 8.10085C81.4098 8.07244 81.5916 8.02557 81.7053 7.96023C81.8217 7.89489 81.88 7.78125 81.88 7.61932V7.58523C81.88 7.16477 81.7649 6.83807 81.5348 6.60511C81.3075 6.37216 80.9624 6.25568 80.4993 6.25568C80.0192 6.25568 79.6428 6.3608 79.37 6.57102C79.0973 6.78125 78.9055 7.00568 78.7947 7.24432L77.8402 6.90341C78.0107 6.50568 78.2379 6.19602 78.522 5.97443C78.8089 5.75 79.1214 5.59375 79.4595 5.50568C79.8004 5.41477 80.1357 5.36932 80.4652 5.36932C80.6754 5.36932 80.9169 5.39489 81.1896 5.44602C81.4652 5.49432 81.7308 5.59517 81.9865 5.74858C82.245 5.90199 82.4595 6.13352 82.63 6.44318C82.8004 6.75284 82.8857 7.16761 82.8857 7.6875V12H81.88V11.1136H81.8288C81.7607 11.2557 81.647 11.4077 81.4879 11.5696C81.3288 11.7315 81.1172 11.8693 80.853 11.983C80.5888 12.0966 80.2663 12.1534 79.8857 12.1534ZM80.0391 11.25C80.4368 11.25 80.772 11.1719 81.0447 11.0156C81.3203 10.8594 81.5277 10.6577 81.6669 10.4105C81.8089 10.1634 81.88 9.90341 81.88 9.63068V8.71023C81.8374 8.76136 81.7436 8.80824 81.5987 8.85085C81.4567 8.89062 81.2919 8.92614 81.1044 8.95739C80.9197 8.9858 80.7393 9.01136 80.5632 9.03409C80.3899 9.05398 80.2493 9.07102 80.1413 9.08523C79.88 9.11932 79.6357 9.17472 79.4084 9.25142C79.1839 9.32528 79.0021 9.4375 78.8629 9.58807C78.7266 9.7358 78.6584 9.9375 78.6584 10.1932C78.6584 10.5426 78.7876 10.8068 79.0462 10.9858C79.3075 11.1619 79.6385 11.25 80.0391 11.25ZM85.7269 8.0625V12H84.7212V5.45455H85.6928V6.47727H85.7781C85.9315 6.14489 86.1644 5.87784 86.4769 5.67614C86.7894 5.47159 87.1928 5.36932 87.6871 5.36932C88.1303 5.36932 88.5181 5.46023 88.8505 5.64205C89.1829 5.82102 89.4414 6.09375 89.6261 6.46023C89.8107 6.82386 89.9031 7.28409 89.9031 7.84091V12H88.8974V7.90909C88.8974 7.39489 88.7638 6.99432 88.4968 6.70739C88.2298 6.41761 87.8633 6.27273 87.3974 6.27273C87.0763 6.27273 86.7894 6.34233 86.5366 6.48153C86.2866 6.62074 86.0891 6.82386 85.9442 7.09091C85.7994 7.35795 85.7269 7.68182 85.7269 8.0625ZM94.3999 12.1364C93.7862 12.1364 93.2578 11.9915 92.8146 11.7017C92.3714 11.4119 92.0305 11.0128 91.7919 10.5043C91.5533 9.99574 91.4339 9.41477 91.4339 8.76136C91.4339 8.09659 91.5561 7.50994 91.8004 7.00142C92.0476 6.49006 92.3913 6.09091 92.8317 5.80398C93.2749 5.5142 93.7919 5.36932 94.3828 5.36932C94.843 5.36932 95.2578 5.45455 95.6271 5.625C95.9964 5.79545 96.299 6.03409 96.5348 6.34091C96.7706 6.64773 96.9169 7.00568 96.9737 7.41477H95.968C95.8913 7.11648 95.7209 6.85227 95.4567 6.62216C95.1953 6.3892 94.843 6.27273 94.3999 6.27273C94.0078 6.27273 93.6641 6.375 93.3686 6.57955C93.076 6.78125 92.8473 7.06676 92.6825 7.43608C92.5206 7.80256 92.4396 8.23295 92.4396 8.72727C92.4396 9.23295 92.5192 9.6733 92.6783 10.0483C92.8402 10.4233 93.0675 10.7145 93.3601 10.9219C93.6555 11.1293 94.0021 11.233 94.3999 11.233C94.6612 11.233 94.8984 11.1875 95.1115 11.0966C95.3246 11.0057 95.505 10.875 95.6527 10.7045C95.8004 10.5341 95.9055 10.3295 95.968 10.0909H96.9737C96.9169 10.4773 96.7763 10.8253 96.5518 11.1349C96.3303 11.4418 96.0362 11.6861 95.6697 11.8679C95.3061 12.0469 94.8828 12.1364 94.3999 12.1364ZM101.188 12.1364C100.558 12.1364 100.013 11.9972 99.5561 11.7188C99.1016 11.4375 98.7507 11.0455 98.5036 10.5426C98.2592 10.0369 98.1371 9.44886 98.1371 8.77841C98.1371 8.10795 98.2592 7.51705 98.5036 7.00568C98.7507 6.49148 99.0945 6.09091 99.5348 5.80398C99.978 5.5142 100.495 5.36932 101.086 5.36932C101.427 5.36932 101.763 5.42614 102.096 5.53977C102.428 5.65341 102.731 5.83807 103.004 6.09375C103.276 6.34659 103.494 6.68182 103.656 7.09943C103.817 7.51705 103.898 8.03125 103.898 8.64205V9.06818H98.853V8.19886H102.876C102.876 7.82955 102.802 7.5 102.654 7.21023C102.509 6.92045 102.302 6.69176 102.032 6.52415C101.765 6.35653 101.45 6.27273 101.086 6.27273C100.685 6.27273 100.339 6.37216 100.046 6.57102C99.7564 6.76705 99.5334 7.02273 99.3771 7.33807C99.2209 7.65341 99.1428 7.99148 99.1428 8.35227V8.93182C99.1428 9.42614 99.228 9.84517 99.3984 10.1889C99.5717 10.5298 99.8118 10.7898 100.119 10.9688C100.425 11.1449 100.782 11.233 101.188 11.233C101.452 11.233 101.691 11.196 101.904 11.1222C102.12 11.0455 102.306 10.9318 102.462 10.7812C102.619 10.6278 102.739 10.4375 102.825 10.2102L103.796 10.483C103.694 10.8125 103.522 11.1023 103.281 11.3523C103.039 11.5994 102.741 11.7926 102.386 11.9318C102.031 12.0682 101.631 12.1364 101.188 12.1364Z" fill="white"/>
<line x1="2" y1="4.5" x2="10" y2="4.5" stroke="white"/>
<line y1="7.5" x2="8" y2="7.5" stroke="white"/>
<line x1="2" y1="10.5" x2="11" y2="10.5" stroke="white"/>
</svg>
