<svg width="252" height="49" viewBox="0 0 252 49" fill="none" xmlns="http://www.w3.org/2000/svg">
<path d="M53.5842 33V15.5455H64.1183V17.4205H55.6978V23.3182H63.5728V25.1932H55.6978V31.125H64.2547V33H53.5842ZM69.1552 19.9091L72.2916 25.2614L75.428 19.9091H77.7461L73.5189 26.4545L77.7461 33H75.428L72.2916 27.9205L69.1552 33H66.837L70.9961 26.4545L66.837 19.9091H69.1552ZM80.6162 37.9091V19.9091H82.5593V21.9886H82.798C82.9457 21.7614 83.1503 21.4716 83.4116 21.1193C83.6787 20.7614 84.0593 20.4432 84.5537 20.1648C85.0537 19.8807 85.7298 19.7386 86.5821 19.7386C87.6843 19.7386 88.6559 20.0142 89.4968 20.5653C90.3378 21.1165 90.994 21.8977 91.4656 22.9091C91.9372 23.9205 92.173 25.1136 92.173 26.4886C92.173 27.875 91.9372 29.0767 91.4656 30.0938C90.994 31.1051 90.3406 31.8892 89.5054 32.446C88.6701 32.9972 87.7071 33.2727 86.6162 33.2727C85.7753 33.2727 85.102 33.1335 84.5963 32.8551C84.0906 32.571 83.7014 32.25 83.4287 31.892C83.1559 31.5284 82.9457 31.2273 82.798 30.9886H82.6275V37.9091H80.6162ZM82.5934 26.4545C82.5934 27.4432 82.7383 28.3153 83.0281 29.071C83.3179 29.821 83.7412 30.4091 84.298 30.8352C84.8548 31.2557 85.5366 31.4659 86.3434 31.4659C87.1843 31.4659 87.886 31.2443 88.4485 30.8011C89.0167 30.3523 89.4429 29.75 89.727 28.9943C90.0167 28.233 90.1616 27.3864 90.1616 26.4545C90.1616 25.5341 90.0196 24.7045 89.7355 23.9659C89.4571 23.2216 89.0338 22.6335 88.4656 22.2017C87.9031 21.7642 87.1957 21.5455 86.3434 21.5455C85.5253 21.5455 84.8378 21.7528 84.2809 22.1676C83.7241 22.5767 83.3037 23.1506 83.0196 23.8892C82.7355 24.6222 82.5934 25.4773 82.5934 26.4545ZM95.2412 33V19.9091H97.1843V21.8864H97.3207C97.5593 21.2386 97.9912 20.7131 98.6162 20.3097C99.2412 19.9062 99.9457 19.7045 100.73 19.7045C100.878 19.7045 101.062 19.7074 101.284 19.7131C101.505 19.7187 101.673 19.7273 101.787 19.7386V21.7841C101.718 21.767 101.562 21.7415 101.318 21.7074C101.079 21.6676 100.826 21.6477 100.559 21.6477C99.923 21.6477 99.3548 21.7812 98.8548 22.0483C98.3605 22.3097 97.9684 22.6733 97.6787 23.1392C97.3946 23.5994 97.2525 24.125 97.2525 24.7159V33H95.2412ZM109.261 33.2727C108 33.2727 106.912 32.9943 105.997 32.4375C105.088 31.875 104.386 31.0909 103.892 30.0852C103.403 29.0739 103.159 27.8977 103.159 26.5568C103.159 25.2159 103.403 24.0341 103.892 23.0114C104.386 21.983 105.074 21.1818 105.954 20.608C106.841 20.0284 107.875 19.7386 109.057 19.7386C109.738 19.7386 110.412 19.8523 111.076 20.0795C111.741 20.3068 112.346 20.6761 112.892 21.1875C113.437 21.6932 113.872 22.3636 114.196 23.1989C114.52 24.0341 114.682 25.0625 114.682 26.2841V27.1364H104.591V25.3977H112.636C112.636 24.6591 112.488 24 112.193 23.4205C111.903 22.8409 111.488 22.3835 110.949 22.0483C110.414 21.7131 109.784 21.5455 109.057 21.5455C108.255 21.5455 107.562 21.7443 106.977 22.142C106.397 22.5341 105.951 23.0455 105.639 23.6761C105.326 24.3068 105.17 24.983 105.17 25.7045V26.8636C105.17 27.8523 105.341 28.6903 105.682 29.3778C106.028 30.0597 106.508 30.5795 107.122 30.9375C107.735 31.2898 108.449 31.4659 109.261 31.4659C109.789 31.4659 110.267 31.392 110.693 31.2443C111.125 31.0909 111.497 30.8636 111.809 30.5625C112.122 30.2557 112.363 29.875 112.534 29.4205L114.477 29.9659C114.272 30.625 113.929 31.2045 113.446 31.7045C112.963 32.1989 112.366 32.5852 111.656 32.8636C110.946 33.1364 110.147 33.2727 109.261 33.2727ZM127.014 22.8409L125.207 23.3523C125.093 23.0511 124.926 22.7585 124.704 22.4744C124.488 22.1847 124.193 21.946 123.818 21.7585C123.443 21.571 122.963 21.4773 122.378 21.4773C121.576 21.4773 120.909 21.6619 120.375 22.0312C119.846 22.3949 119.582 22.858 119.582 23.4205C119.582 23.9205 119.764 24.3153 120.128 24.6051C120.491 24.8949 121.059 25.1364 121.832 25.3295L123.775 25.8068C124.946 26.0909 125.818 26.5256 126.392 27.1108C126.966 27.6903 127.253 28.4375 127.253 29.3523C127.253 30.1023 127.037 30.7727 126.605 31.3636C126.179 31.9545 125.582 32.4205 124.815 32.7614C124.048 33.1023 123.156 33.2727 122.139 33.2727C120.804 33.2727 119.699 32.983 118.824 32.4034C117.949 31.8239 117.395 30.9773 117.162 29.8636L119.071 29.3864C119.253 30.0909 119.596 30.6193 120.102 30.9716C120.613 31.3239 121.281 31.5 122.105 31.5C123.042 31.5 123.787 31.3011 124.338 30.9034C124.895 30.5 125.173 30.017 125.173 29.4545C125.173 29 125.014 28.6193 124.696 28.3125C124.378 28 123.889 27.767 123.23 27.6136L121.048 27.1023C119.849 26.8182 118.968 26.3778 118.406 25.7812C117.849 25.179 117.571 24.4261 117.571 23.5227C117.571 22.7841 117.778 22.1307 118.193 21.5625C118.613 20.9943 119.184 20.5483 119.906 20.2244C120.633 19.9006 121.457 19.7386 122.378 19.7386C123.673 19.7386 124.69 20.0227 125.429 20.5909C126.173 21.1591 126.701 21.9091 127.014 22.8409ZM139.553 22.8409L137.746 23.3523C137.632 23.0511 137.465 22.7585 137.243 22.4744C137.027 22.1847 136.732 21.946 136.357 21.7585C135.982 21.571 135.502 21.4773 134.917 21.4773C134.115 21.4773 133.448 21.6619 132.914 22.0312C132.385 22.3949 132.121 22.858 132.121 23.4205C132.121 23.9205 132.303 24.3153 132.667 24.6051C133.03 24.8949 133.598 25.1364 134.371 25.3295L136.314 25.8068C137.485 26.0909 138.357 26.5256 138.931 27.1108C139.505 27.6903 139.792 28.4375 139.792 29.3523C139.792 30.1023 139.576 30.7727 139.144 31.3636C138.718 31.9545 138.121 32.4205 137.354 32.7614C136.587 33.1023 135.695 33.2727 134.678 33.2727C133.343 33.2727 132.238 32.983 131.363 32.4034C130.488 31.8239 129.934 30.9773 129.701 29.8636L131.61 29.3864C131.792 30.0909 132.135 30.6193 132.641 30.9716C133.152 31.3239 133.82 31.5 134.644 31.5C135.581 31.5 136.326 31.3011 136.877 30.9034C137.434 30.5 137.712 30.017 137.712 29.4545C137.712 29 137.553 28.6193 137.235 28.3125C136.917 28 136.428 27.767 135.769 27.6136L133.587 27.1023C132.388 26.8182 131.507 26.3778 130.945 25.7812C130.388 25.179 130.11 24.4261 130.11 23.5227C130.11 22.7841 130.317 22.1307 130.732 21.5625C131.152 20.9943 131.723 20.5483 132.445 20.2244C133.172 19.9006 133.996 19.7386 134.917 19.7386C136.212 19.7386 137.229 20.0227 137.968 20.5909C138.712 21.1591 139.24 21.9091 139.553 22.8409ZM149.842 33V15.5455H160.308V17.4205H151.956V23.3182H159.524V25.1932H151.956V33H149.842ZM163.655 33V19.9091H165.667V33H163.655ZM164.678 17.7273C164.286 17.7273 163.948 17.5938 163.664 17.3267C163.385 17.0597 163.246 16.7386 163.246 16.3636C163.246 15.9886 163.385 15.6676 163.664 15.4006C163.948 15.1335 164.286 15 164.678 15C165.07 15 165.405 15.1335 165.684 15.4006C165.968 15.6676 166.11 15.9886 166.11 16.3636C166.11 16.7386 165.968 17.0597 165.684 17.3267C165.405 17.5938 165.07 17.7273 164.678 17.7273ZM171.362 25.125V33H169.351V19.9091H171.294V21.9545H171.464C171.771 21.2898 172.237 20.7557 172.862 20.3523C173.487 19.9432 174.294 19.7386 175.282 19.7386C176.169 19.7386 176.944 19.9205 177.609 20.2841C178.274 20.642 178.791 21.1875 179.16 21.9205C179.53 22.6477 179.714 23.5682 179.714 24.6818V33H177.703V24.8182C177.703 23.7898 177.436 22.9886 176.902 22.4148C176.368 21.8352 175.635 21.5455 174.703 21.5455C174.061 21.5455 173.487 21.6847 172.981 21.9631C172.481 22.2415 172.086 22.6477 171.797 23.1818C171.507 23.7159 171.362 24.3636 171.362 25.125ZM187.242 33.3068C186.412 33.3068 185.659 33.1506 184.983 32.8381C184.307 32.5199 183.77 32.0625 183.373 31.4659C182.975 30.8636 182.776 30.1364 182.776 29.2841C182.776 28.5341 182.924 27.9261 183.219 27.4602C183.515 26.9886 183.909 26.6193 184.404 26.3523C184.898 26.0852 185.444 25.8864 186.04 25.7557C186.642 25.6193 187.248 25.5114 187.856 25.4318C188.651 25.3295 189.296 25.2528 189.79 25.2017C190.29 25.1449 190.654 25.0511 190.881 24.9205C191.114 24.7898 191.231 24.5625 191.231 24.2386V24.1705C191.231 23.3295 191 22.6761 190.54 22.2102C190.086 21.7443 189.395 21.5114 188.469 21.5114C187.509 21.5114 186.756 21.7216 186.211 22.142C185.665 22.5625 185.282 23.0114 185.06 23.4886L183.151 22.8068C183.492 22.0114 183.946 21.392 184.515 20.9489C185.088 20.5 185.713 20.1875 186.39 20.0114C187.071 19.8295 187.742 19.7386 188.401 19.7386C188.821 19.7386 189.304 19.7898 189.85 19.892C190.401 19.9886 190.932 20.1903 191.444 20.4972C191.961 20.804 192.39 21.267 192.731 21.8864C193.071 22.5057 193.242 23.3352 193.242 24.375V33H191.231V31.2273H191.128C190.992 31.5114 190.765 31.8153 190.446 32.1392C190.128 32.4631 189.705 32.7386 189.177 32.9659C188.648 33.1932 188.003 33.3068 187.242 33.3068ZM187.549 31.5C188.344 31.5 189.015 31.3438 189.56 31.0312C190.111 30.7188 190.526 30.3153 190.804 29.821C191.088 29.3267 191.231 28.8068 191.231 28.2614V26.4205C191.145 26.5227 190.958 26.6165 190.668 26.7017C190.384 26.7812 190.054 26.8523 189.679 26.9148C189.31 26.9716 188.949 27.0227 188.597 27.0682C188.25 27.108 187.969 27.142 187.753 27.1705C187.231 27.2386 186.742 27.3494 186.287 27.5028C185.838 27.6506 185.475 27.875 185.196 28.1761C184.924 28.4716 184.787 28.875 184.787 29.3864C184.787 30.0852 185.046 30.6136 185.563 30.9716C186.086 31.3239 186.748 31.5 187.549 31.5ZM198.924 25.125V33H196.913V19.9091H198.856V21.9545H199.027C199.333 21.2898 199.799 20.7557 200.424 20.3523C201.049 19.9432 201.856 19.7386 202.845 19.7386C203.731 19.7386 204.507 19.9205 205.172 20.2841C205.836 20.642 206.353 21.1875 206.723 21.9205C207.092 22.6477 207.277 23.5682 207.277 24.6818V33H205.265V24.8182C205.265 23.7898 204.998 22.9886 204.464 22.4148C203.93 21.8352 203.197 21.5455 202.265 21.5455C201.623 21.5455 201.049 21.6847 200.544 21.9631C200.044 22.2415 199.649 22.6477 199.359 23.1818C199.069 23.7159 198.924 24.3636 198.924 25.125ZM216.27 33.2727C215.043 33.2727 213.986 32.983 213.1 32.4034C212.213 31.8239 211.532 31.0256 211.054 30.0085C210.577 28.9915 210.338 27.8295 210.338 26.5227C210.338 25.1932 210.583 24.0199 211.071 23.0028C211.566 21.9801 212.253 21.1818 213.134 20.608C214.02 20.0284 215.054 19.7386 216.236 19.7386C217.157 19.7386 217.986 19.9091 218.725 20.25C219.463 20.5909 220.069 21.0682 220.54 21.6818C221.012 22.2955 221.304 23.0114 221.418 23.8295H219.407C219.253 23.233 218.912 22.7045 218.384 22.2443C217.861 21.7784 217.157 21.5455 216.27 21.5455C215.486 21.5455 214.799 21.75 214.208 22.1591C213.623 22.5625 213.165 23.1335 212.836 23.8722C212.512 24.6051 212.35 25.4659 212.35 26.4545C212.35 27.4659 212.509 28.3466 212.827 29.0966C213.151 29.8466 213.606 30.429 214.191 30.8438C214.782 31.2585 215.475 31.4659 216.27 31.4659C216.793 31.4659 217.267 31.375 217.694 31.1932C218.12 31.0114 218.481 30.75 218.776 30.4091C219.071 30.0682 219.282 29.6591 219.407 29.1818H221.418C221.304 29.9545 221.023 30.6506 220.574 31.2699C220.131 31.8835 219.543 32.3722 218.81 32.7358C218.083 33.0938 217.236 33.2727 216.27 33.2727ZM229.847 33.2727C228.586 33.2727 227.498 32.9943 226.583 32.4375C225.674 31.875 224.972 31.0909 224.478 30.0852C223.989 29.0739 223.745 27.8977 223.745 26.5568C223.745 25.2159 223.989 24.0341 224.478 23.0114C224.972 21.983 225.659 21.1818 226.54 20.608C227.427 20.0284 228.461 19.7386 229.642 19.7386C230.324 19.7386 230.998 19.8523 231.662 20.0795C232.327 20.3068 232.932 20.6761 233.478 21.1875C234.023 21.6932 234.458 22.3636 234.782 23.1989C235.106 24.0341 235.267 25.0625 235.267 26.2841V27.1364H225.177V25.3977H233.222C233.222 24.6591 233.074 24 232.779 23.4205C232.489 22.8409 232.074 22.3835 231.534 22.0483C231 21.7131 230.37 21.5455 229.642 21.5455C228.841 21.5455 228.148 21.7443 227.563 22.142C226.983 22.5341 226.537 23.0455 226.225 23.6761C225.912 24.3068 225.756 24.983 225.756 25.7045V26.8636C225.756 27.8523 225.927 28.6903 226.267 29.3778C226.614 30.0597 227.094 30.5795 227.708 30.9375C228.321 31.2898 229.034 31.4659 229.847 31.4659C230.375 31.4659 230.853 31.392 231.279 31.2443C231.711 31.0909 232.083 30.8636 232.395 30.5625C232.708 30.2557 232.949 29.875 233.12 29.4205L235.063 29.9659C234.858 30.625 234.515 31.2045 234.032 31.7045C233.549 32.1989 232.952 32.5852 232.242 32.8636C231.532 33.1364 230.733 33.2727 229.847 33.2727Z" fill="black"/>
<line x1="25.0235" y1="19" x2="42.933" y2="19" stroke="black" stroke-width="2"/>
<line x1="21.253" y1="26" x2="39.1626" y2="26" stroke="black" stroke-width="2"/>
<line y1="-1" x2="19.5815" y2="-1" transform="matrix(0.999994 0.00340491 -0.00302531 0.999995 25.0235 33)" stroke="black" stroke-width="2"/>
</svg>
